<svg width="48" height="48" viewBox="0 0 48 48" fill="none" xmlns="http://www.w3.org/2000/svg">
<g filter="url(#filter0_dd_381_26605)">
<path d="M12 14C12 7.37258 17.3726 2 24 2C30.6274 2 36 7.37258 36 14C36 20.6274 30.6274 26 24 26C17.3726 26 12 20.6274 12 14Z" fill="#F5F5F5" shape-rendering="crispEdges"/>
<path d="M25.6464 9.64645C25.8417 9.45118 26.1582 9.45118 26.3535 9.64645C26.5487 9.84171 26.5487 10.1582 26.3535 10.3535L22.707 14L26.3535 17.6464C26.5487 17.8417 26.5487 18.1582 26.3535 18.3535C26.1582 18.5487 25.8417 18.5487 25.6464 18.3535L21.6464 14.3535C21.4512 14.1582 21.4512 13.8417 21.6464 13.6464L25.6464 9.64645Z" fill="#0A0A0A"/>
</g>
<defs>
<filter id="filter0_dd_381_26605" x="0" y="0" width="48" height="48" filterUnits="userSpaceOnUse" color-interpolation-filters="sRGB">
<feFlood flood-opacity="0" result="BackgroundImageFix"/>
<feColorMatrix in="SourceAlpha" type="matrix" values="0 0 0 0 0 0 0 0 0 0 0 0 0 0 0 0 0 0 127 0" result="hardAlpha"/>
<feMorphology radius="4" operator="erode" in="SourceAlpha" result="effect1_dropShadow_381_26605"/>
<feOffset dy="4"/>
<feGaussianBlur stdDeviation="3"/>
<feComposite in2="hardAlpha" operator="out"/>
<feColorMatrix type="matrix" values="0 0 0 0 0 0 0 0 0 0 0 0 0 0 0 0 0 0 0.1 0"/>
<feBlend mode="normal" in2="BackgroundImageFix" result="effect1_dropShadow_381_26605"/>
<feColorMatrix in="SourceAlpha" type="matrix" values="0 0 0 0 0 0 0 0 0 0 0 0 0 0 0 0 0 0 127 0" result="hardAlpha"/>
<feMorphology radius="3" operator="erode" in="SourceAlpha" result="effect2_dropShadow_381_26605"/>
<feOffset dy="10"/>
<feGaussianBlur stdDeviation="7.5"/>
<feComposite in2="hardAlpha" operator="out"/>
<feColorMatrix type="matrix" values="0 0 0 0 0 0 0 0 0 0 0 0 0 0 0 0 0 0 0.1 0"/>
<feBlend mode="normal" in2="effect1_dropShadow_381_26605" result="effect2_dropShadow_381_26605"/>
<feBlend mode="normal" in="SourceGraphic" in2="effect2_dropShadow_381_26605" result="shape"/>
</filter>
</defs>
</svg>
