<svg width="20" height="20" viewBox="0 0 20 20" fill="none" xmlns="http://www.w3.org/2000/svg">
<path d="M12.9796 11.6465C13.1749 11.4513 13.4914 11.4513 13.6866 11.6465C13.8819 11.8418 13.8819 12.1583 13.6866 12.3536L10.3533 15.6869C10.1581 15.8821 9.84155 15.8821 9.64628 15.6869L6.31295 12.3536C6.11769 12.1583 6.11769 11.8418 6.31295 11.6465C6.50821 11.4513 6.82472 11.4513 7.01998 11.6465L9.9998 14.6263L12.9796 11.6465Z" fill="#737373"/>
<path d="M9.68404 4.27868C9.88043 4.11848 10.1702 4.13012 10.3533 4.31319L13.6866 7.64652C13.8819 7.84178 13.8819 8.15829 13.6866 8.35355C13.4914 8.54882 13.1749 8.54882 12.9796 8.35355L9.9998 5.37374L7.01998 8.35355C6.82472 8.54882 6.50821 8.54882 6.31295 8.35355C6.11769 8.15829 6.11769 7.84178 6.31295 7.64652L9.64628 4.31319L9.68404 4.27868Z" fill="#737373"/>
</svg>
